<svg fill="#000000" xmlns="http://www.w3.org/2000/svg" viewBox="0 0 24 24" width="24px" height="24px"><path d="M 10.09375 2 L 7.40625 3.1875 L 6.09375 4.5 L 5 12.09375 L 5.90625 14.1875 L 6.8125 19.5 L 9.90625 22 L 14 22 L 17.09375 19.59375 L 18 14.3125 L 18.90625 12.1875 L 17.90625 4.5 L 16.5 3.09375 L 13.90625 2 Z M 10 4 L 11 9 L 13 9 L 14 4 L 17 6 L 17 10 L 18 12 L 16 16 L 15 20 L 14 19 L 10 19 L 9 20 L 8 16 L 6 12 L 7 10 L 7 6 Z M 7.25 11.03125 L 6.75 12.96875 L 10.75 13.96875 L 11.25 12.03125 Z M 16.75 11.03125 L 12.75 12.03125 L 13.25 13.96875 L 17.25 12.96875 Z"/></svg>